<svg width="514" height="88" viewBox="0 0 514 88" fill="none" xmlns="http://www.w3.org/2000/svg">
<path d="M101.167 32.482C101.364 37.07 101.34 41.732 101.093 46.468L100.871 70.074C100.131 69.9753 99.317 69.926 98.429 69.926C97.541 69.926 96.653 69.926 95.765 69.926C94.877 69.926 94.0136 69.9507 93.175 70C92.3856 70 91.695 70 91.103 70C91.0043 67.8787 90.9303 65.5847 90.881 63.118C90.881 60.6513 90.8563 58.1353 90.807 55.57C90.807 53.0047 90.733 50.4887 90.585 48.022C90.4863 45.5553 90.3136 43.286 90.067 41.214C89.7216 41.7567 89.327 42.62 88.883 43.804C88.439 44.9387 87.995 46.1227 87.551 47.356C87.107 48.5893 86.6876 49.6747 86.293 50.612C85.8983 51.5493 85.6023 52.018 85.405 52.018C85.1583 52.018 84.8623 51.7713 84.517 51.278C84.221 50.7353 83.9003 50.0693 83.555 49.28C83.259 48.4907 82.9383 47.652 82.593 46.764C82.2476 45.876 81.9516 45.062 81.705 44.322C81.4583 43.582 81.2363 42.9653 81.039 42.472C80.891 41.9787 80.817 41.732 80.817 41.732C80.4223 46.3693 80.2743 51.056 80.373 55.792C80.521 60.528 80.743 65.19 81.039 69.778C79.4603 70.0247 77.7336 70.1233 75.859 70.074C73.9843 70.0247 72.2576 70 70.679 70C70.5803 70 70.5063 69.926 70.457 69.778C70.4076 69.5807 70.3583 69.112 70.309 68.372C70.2596 67.632 70.2103 66.522 70.161 65.042C70.161 63.5127 70.161 61.5147 70.161 59.048C70.161 56.5813 70.161 53.5227 70.161 49.872C70.2103 46.2213 70.235 41.88 70.235 36.848C70.2843 31.816 70.3336 25.9453 70.383 19.236C71.0243 19.0387 71.7643 18.9153 72.603 18.866C73.4416 18.8167 74.305 18.8167 75.193 18.866C76.081 18.866 76.969 18.8907 77.857 18.94C78.745 18.94 79.6083 18.9153 80.447 18.866H80.521C80.965 19.3593 81.409 20.124 81.853 21.16C82.297 22.1467 82.7163 23.2073 83.111 24.342C83.5056 25.4767 83.8756 26.562 84.221 27.598C84.6156 28.634 85.0103 29.448 85.405 30.04C85.553 30.188 85.701 30.262 85.849 30.262C85.997 30.3113 86.219 29.8427 86.515 28.856C86.8603 27.8693 87.2056 26.7347 87.551 25.452C87.9456 24.12 88.365 22.8127 88.809 21.53C89.3023 20.2473 89.771 19.31 90.215 18.718C90.5603 18.7673 91.177 18.7673 92.065 18.718C93.0023 18.6687 93.989 18.6193 95.025 18.57C96.1103 18.5207 97.1956 18.496 98.281 18.496C99.4156 18.4467 100.378 18.422 101.167 18.422C100.97 23.158 100.97 27.8447 101.167 32.482ZM113.745 17.978C114.929 18.0273 116.631 18.0273 118.851 17.978H120.627V18.274C120.627 22.5167 120.553 26.784 120.405 31.076C120.307 35.368 120.208 39.6847 120.109 44.026C120.06 48.318 120.06 52.61 120.109 56.902C120.159 61.194 120.307 65.4367 120.553 69.63C120.159 70.0247 119.32 70.2467 118.037 70.296C116.804 70.3947 115.447 70.4193 113.967 70.37C112.537 70.3207 111.155 70.2467 109.823 70.148C108.491 70.0987 107.579 70.148 107.085 70.296C107.431 65.856 107.579 61.3913 107.529 56.902C107.48 52.4127 107.381 47.9727 107.233 43.582C107.135 39.142 107.061 34.776 107.011 30.484C107.011 26.1427 107.233 21.9 107.677 17.756V17.608C107.924 17.5587 108.393 17.5833 109.083 17.682C109.823 17.7313 110.366 17.756 110.711 17.756C111.599 17.8053 112.611 17.8793 113.745 17.978ZM158.868 63.932C159.953 65.8067 160.866 67.7553 161.606 69.778H161.68C159.953 69.778 158.029 69.852 155.908 70C153.787 70.0987 151.616 70.074 149.396 69.926H149.322C148.829 68.7913 148.212 67.4347 147.472 65.856C146.732 64.2773 145.918 62.6247 145.03 60.898C144.142 59.1713 143.18 57.4693 142.144 55.792C141.108 54.1147 140.072 52.6347 139.036 51.352L138.888 51.13C138.74 52.2647 138.666 53.6707 138.666 55.348C138.666 56.976 138.691 58.678 138.74 60.454C138.839 62.1807 138.937 63.8333 139.036 65.412C139.135 66.9907 139.209 68.2487 139.258 69.186C138.419 69.5313 137.309 69.7533 135.928 69.852C134.596 69.9507 133.264 70 131.932 70C130.6 70.0493 129.391 70.0493 128.306 70C127.27 69.9507 126.629 69.9507 126.382 70C126.481 70 126.555 69.334 126.604 68.002C126.653 66.6207 126.678 64.82 126.678 62.6C126.678 60.38 126.678 57.8393 126.678 54.978C126.678 52.0673 126.653 49.0827 126.604 46.024C126.604 42.916 126.555 39.8573 126.456 36.848C126.407 33.7893 126.357 31.002 126.308 28.486C126.259 25.9207 126.185 23.75 126.086 21.974C126.037 20.1487 125.963 18.9153 125.864 18.274C128.627 17.8793 131.661 17.5093 134.966 17.164C138.271 16.8187 141.725 16.8433 145.326 17.238C148.237 17.386 150.851 18.2247 153.17 19.754C155.489 21.2833 157.289 23.1827 158.572 25.452C159.855 27.7213 160.521 30.2373 160.57 33C160.669 35.7133 159.953 38.3527 158.424 40.918C157.487 42.694 156.229 44.174 154.65 45.358C153.121 46.542 151.172 47.208 148.804 47.356H148.508H148.434V47.43C149.47 49.2553 150.605 51.0807 151.838 52.906C153.071 54.682 154.28 56.4827 155.464 58.308C156.648 60.1333 157.783 62.008 158.868 63.932ZM141.774 27.524C140.097 27.5733 138.395 27.9433 136.668 28.634C136.717 29.2753 136.742 30.0153 136.742 30.854C136.791 31.6433 136.816 32.4573 136.816 33.296C136.816 34.1347 136.816 34.9487 136.816 35.738C136.865 36.5273 136.939 37.1933 137.038 37.736H137.112C138.247 37.8347 139.48 37.9087 140.812 37.958C142.144 38.0073 143.402 37.9333 144.586 37.736C145.523 37.5387 146.239 37.07 146.732 36.33C147.275 35.5407 147.595 34.702 147.694 33.814C147.793 32.8767 147.694 31.964 147.398 31.076C147.102 30.1387 146.609 29.3987 145.918 28.856C144.833 27.8693 143.451 27.4253 141.774 27.524ZM187.697 40.622C188.042 42.0527 188.313 43.1873 188.511 44.026L194.061 69.926V70C192.581 70.296 190.953 70.3947 189.177 70.296C187.401 70.2467 185.723 70.0493 184.145 69.704H184.071C183.775 68.9147 183.479 67.9773 183.183 66.892C182.936 65.8067 182.665 64.6967 182.369 63.562C182.122 62.4273 181.851 61.342 181.555 60.306C181.259 59.27 180.938 58.382 180.593 57.642C179.951 57.5433 179.458 57.494 179.113 57.494C178.767 57.494 178.447 57.494 178.151 57.494C177.904 57.494 177.608 57.5187 177.263 57.568C176.967 57.568 176.547 57.568 176.005 57.568C175.659 58.3573 175.363 59.2947 175.117 60.38C174.919 61.416 174.697 62.526 174.451 63.71C174.253 64.8447 174.031 65.9547 173.785 67.04C173.538 68.1253 173.193 69.0873 172.749 69.926C172.699 69.926 172.65 69.9507 172.601 70C172.601 70 172.576 70 172.527 70C172.132 70.0987 171.145 70.0987 169.567 70C167.988 69.9013 165.521 69.8767 162.167 69.926C162.117 69.926 162.068 69.9013 162.019 69.852C162.117 69.5067 162.29 68.5447 162.537 66.966C162.783 65.3873 163.129 63.34 163.573 60.824C164.017 58.308 164.535 55.422 165.127 52.166C165.768 48.8607 166.508 45.358 167.347 41.658C168.185 37.958 169.098 34.11 170.085 30.114C171.071 26.118 172.157 22.1467 173.341 18.2C173.686 18.1507 174.056 18.126 174.451 18.126C174.845 18.126 175.363 18.126 176.005 18.126C176.646 18.126 177.46 18.126 178.447 18.126C179.483 18.0767 180.815 17.978 182.443 17.83C182.591 18.4713 182.813 19.458 183.109 20.79C183.454 22.0727 183.799 23.5527 184.145 25.23C184.539 26.858 184.934 28.6093 185.329 30.484C185.773 32.3587 186.192 34.1593 186.587 35.886C186.981 37.6127 187.351 39.1913 187.697 40.622ZM178.151 48.91C179.088 48.8607 180.025 48.836 180.963 48.836C180.469 44.5933 180.025 41.288 179.631 38.92C179.285 36.552 178.965 34.9487 178.669 34.11C178.422 33.2713 178.151 33.0987 177.855 33.592C177.608 34.036 177.361 34.9733 177.115 36.404C176.917 37.8347 176.671 39.6353 176.375 41.806C176.128 43.9767 175.832 46.32 175.487 48.836C176.325 48.8853 177.213 48.91 178.151 48.91ZM210.992 44.322C210.992 44.322 211.042 44.2973 211.14 44.248C211.782 43.8533 212.818 43.6313 214.248 43.582C215.728 43.4833 217.282 43.4587 218.91 43.508C220.538 43.5573 222.043 43.656 223.424 43.804C224.855 43.9027 225.817 43.952 226.31 43.952H226.458L226.532 44.026C226.828 46.6407 227.026 49.428 227.124 52.388C227.223 55.2987 227.026 58.086 226.532 60.75C226.286 63.266 225.521 65.19 224.238 66.522C222.956 67.854 221.377 68.8653 219.502 69.556C218.269 69.9013 216.986 70.1973 215.654 70.444C214.322 70.74 212.966 70.9373 211.584 71.036C210.203 71.184 208.846 71.184 207.514 71.036C206.232 70.888 204.998 70.5673 203.814 70.074C201.841 69.2353 200.336 68.1007 199.3 66.67C198.264 65.2393 197.45 63.4633 196.858 61.342C196.71 60.7993 196.538 60.0593 196.34 59.122C196.192 58.1353 196.069 57.1487 195.97 56.162C195.822 54.5833 195.699 53.1527 195.6 51.87C195.502 50.5873 195.403 49.3293 195.304 48.096C195.255 46.8133 195.206 45.4813 195.156 44.1C195.156 42.6693 195.181 41.0413 195.23 39.216C195.28 37.6373 195.354 36.034 195.452 34.406C195.551 32.7287 195.724 31.1007 195.97 29.522C196.217 27.894 196.636 26.3153 197.228 24.786C197.87 23.2567 198.906 21.9987 200.336 21.012C201.323 20.1733 202.433 19.5567 203.666 19.162C204.9 18.7673 206.182 18.4713 207.514 18.274C210.228 17.9287 212.818 18.0273 215.284 18.57C217.751 19.0633 219.872 19.976 221.648 21.308C223.424 22.64 224.756 24.416 225.644 26.636C226.532 28.8067 226.804 31.3967 226.458 34.406L226.384 34.85C226.286 34.998 226.064 35.072 225.718 35.072C225.373 35.072 224.806 35.0967 224.016 35.146C223.276 35.146 222.635 35.1707 222.092 35.22C221.599 35.22 221.081 35.22 220.538 35.22C220.045 35.22 219.527 35.1953 218.984 35.146C218.442 35.0967 217.8 35.0227 217.06 34.924C216.912 34.4307 216.69 33.8387 216.394 33.148C216.148 32.408 215.802 31.742 215.358 31.15C214.964 30.5087 214.495 29.966 213.952 29.522C213.41 29.0287 212.768 28.782 212.028 28.782C211.19 28.7327 210.376 28.708 209.586 28.708C208.797 28.708 208.106 29.004 207.514 29.596C207.416 29.6947 207.268 29.966 207.07 30.41C206.922 30.8047 206.799 31.1993 206.7 31.594C206.355 32.778 206.059 34.2087 205.812 35.886C205.615 37.5633 205.467 39.364 205.368 41.288C205.27 43.1627 205.245 45.1113 205.294 47.134C205.344 49.1567 205.442 51.0807 205.59 52.906C205.689 53.9913 205.886 55.1753 206.182 56.458C206.478 57.7407 207.095 58.752 208.032 59.492C208.476 59.788 209.044 60.01 209.734 60.158C210.474 60.2567 211.239 60.232 212.028 60.084C212.867 59.936 213.632 59.7387 214.322 59.492C214.865 59.2453 215.334 58.9247 215.728 58.53C216.123 58.086 216.419 57.5187 216.616 56.828C216.666 56.6307 216.715 56.31 216.764 55.866C216.863 55.3727 216.912 54.8793 216.912 54.386C216.962 53.8927 216.962 53.4487 216.912 53.054C216.912 52.6593 216.838 52.4373 216.69 52.388C216.394 52.3387 215.975 52.3387 215.432 52.388C214.939 52.388 214.396 52.4127 213.804 52.462C213.262 52.462 212.744 52.462 212.25 52.462C211.806 52.4127 211.461 52.3387 211.214 52.24C211.116 51.4507 211.042 50.76 210.992 50.168C210.992 49.576 210.992 49.0087 210.992 48.466C211.042 47.874 211.066 47.282 211.066 46.69C211.066 46.098 211.017 45.358 210.918 44.47V44.396C210.918 44.3467 210.943 44.322 210.992 44.322ZM253.279 59.862C256.436 60.01 259.692 60.0347 263.047 59.936V60.084C263.146 61.6627 263.17 63.3153 263.121 65.042C263.072 66.7193 262.85 68.298 262.455 69.778C257.423 69.7287 252.292 69.8027 247.063 70C241.883 70.148 236.9 70.0247 232.115 69.63C232.115 65.338 232.066 61.0953 231.967 56.902C231.868 52.6593 231.794 48.4413 231.745 44.248C231.696 40.0547 231.696 35.8613 231.745 31.668C231.794 27.4747 231.942 23.2567 232.189 19.014C234.113 18.9153 236.185 18.8413 238.405 18.792C240.674 18.6933 242.944 18.6193 245.213 18.57C247.482 18.5207 249.678 18.4713 251.799 18.422C253.92 18.3727 255.795 18.348 257.423 18.348C259.051 18.348 260.358 18.3727 261.345 18.422C262.332 18.4713 262.825 18.5207 262.825 18.57C263.072 20.2967 263.121 22.048 262.973 23.824C262.874 25.6 262.825 27.3513 262.825 29.078V29.152C261.246 29.4973 259.643 29.7193 258.015 29.818C256.436 29.8673 254.833 29.892 253.205 29.892C251.577 29.8427 249.949 29.818 248.321 29.818C246.693 29.818 245.065 29.892 243.437 30.04H243.215L243.141 30.114C243.19 31.5447 243.116 33.0247 242.919 34.554C242.771 36.034 242.87 37.44 243.215 38.772L243.289 38.846C244.769 38.9447 246.274 38.994 247.803 38.994C249.332 38.994 250.862 39.0187 252.391 39.068V39.142C252.638 40.8193 252.712 42.4967 252.613 44.174C252.514 45.8513 252.49 47.6027 252.539 49.428C251.799 49.6253 250.96 49.7487 250.023 49.798C249.086 49.798 248.173 49.798 247.285 49.798C246.446 49.798 245.682 49.8227 244.991 49.872C244.3 49.9213 243.832 50.0447 243.585 50.242C243.338 51.6727 243.24 53.276 243.289 55.052C243.388 56.828 243.486 58.308 243.585 59.492L243.659 59.566C246.915 59.566 250.122 59.6647 253.279 59.862ZM298.156 61.934C298.156 62.4273 298.181 62.8713 298.23 63.266C298.329 65.042 298.378 66.3987 298.378 67.336C298.378 68.224 298.304 68.89 298.156 69.334C298.057 69.7287 297.86 69.9507 297.564 70C297.268 70 296.849 70 296.306 70C295.763 69.9507 295.048 69.9507 294.16 70C293.321 70.0493 291.866 70.0987 289.794 70.148C287.771 70.1973 284.959 70.222 281.358 70.222C277.806 70.222 273.045 70.1727 267.076 70.074V68.742C267.224 65.042 267.347 61.712 267.446 58.752C267.545 55.7427 267.594 52.9553 267.594 50.39C267.643 47.7753 267.668 45.2593 267.668 42.842C267.668 40.4247 267.643 37.958 267.594 35.442C267.545 32.926 267.495 30.262 267.446 27.45C267.397 24.5887 267.347 21.4313 267.298 17.978C267.791 17.7807 268.556 17.6327 269.592 17.534C270.628 17.386 271.738 17.312 272.922 17.312C274.106 17.312 275.265 17.386 276.4 17.534C277.535 17.682 278.447 17.904 279.138 18.2C279.039 21.4067 278.99 24.712 278.99 28.116C279.039 31.4707 279.089 34.85 279.138 38.254C279.187 41.658 279.212 45.062 279.212 48.466C279.261 51.8207 279.261 55.0767 279.212 58.234V58.308C279.557 58.2093 280.199 58.1847 281.136 58.234C282.123 58.234 283.257 58.2587 284.54 58.308C285.823 58.3573 287.179 58.4313 288.61 58.53C290.09 58.5793 291.471 58.6287 292.754 58.678C294.086 58.7273 295.245 58.7767 296.232 58.826C297.268 58.826 297.983 58.8013 298.378 58.752C298.378 59.2947 298.353 59.8373 298.304 60.38C298.255 60.8733 298.205 61.3913 298.156 61.934ZM323.015 59.862C326.173 60.01 329.429 60.0347 332.783 59.936V60.084C332.882 61.6627 332.907 63.3153 332.857 65.042C332.808 66.7193 332.586 68.298 332.191 69.778C327.159 69.7287 322.029 69.8027 316.799 70C311.619 70.148 306.637 70.0247 301.851 69.63C301.851 65.338 301.802 61.0953 301.703 56.902C301.605 52.6593 301.531 48.4413 301.481 44.248C301.432 40.0547 301.432 35.8613 301.481 31.668C301.531 27.4747 301.679 23.2567 301.925 19.014C303.849 18.9153 305.921 18.8413 308.141 18.792C310.411 18.6933 312.68 18.6193 314.949 18.57C317.219 18.5207 319.414 18.4713 321.535 18.422C323.657 18.3727 325.531 18.348 327.159 18.348C328.787 18.348 330.095 18.3727 331.081 18.422C332.068 18.4713 332.561 18.5207 332.561 18.57C332.808 20.2967 332.857 22.048 332.709 23.824C332.611 25.6 332.561 27.3513 332.561 29.078V29.152C330.983 29.4973 329.379 29.7193 327.751 29.818C326.173 29.8673 324.569 29.892 322.941 29.892C321.313 29.8427 319.685 29.818 318.057 29.818C316.429 29.818 314.801 29.892 313.173 30.04H312.951L312.877 30.114C312.927 31.5447 312.853 33.0247 312.655 34.554C312.507 36.034 312.606 37.44 312.951 38.772L313.025 38.846C314.505 38.9447 316.01 38.994 317.539 38.994C319.069 38.994 320.598 39.0187 322.127 39.068V39.142C322.374 40.8193 322.448 42.4967 322.349 44.174C322.251 45.8513 322.226 47.6027 322.275 49.428C321.535 49.6253 320.697 49.7487 319.759 49.798C318.822 49.798 317.909 49.798 317.021 49.798C316.183 49.798 315.418 49.8227 314.727 49.872C314.037 49.9213 313.568 50.0447 313.321 50.242C313.075 51.6727 312.976 53.276 313.025 55.052C313.124 56.828 313.223 58.308 313.321 59.492L313.395 59.566C316.651 59.566 319.858 59.6647 323.015 59.862ZM351.982 44.322C351.982 44.322 352.032 44.2973 352.13 44.248C352.772 43.8533 353.808 43.6313 355.238 43.582C356.718 43.4833 358.272 43.4587 359.9 43.508C361.528 43.5573 363.033 43.656 364.414 43.804C365.845 43.9027 366.807 43.952 367.3 43.952H367.448L367.522 44.026C367.818 46.6407 368.016 49.428 368.114 52.388C368.213 55.2987 368.016 58.086 367.522 60.75C367.276 63.266 366.511 65.19 365.228 66.522C363.946 67.854 362.367 68.8653 360.492 69.556C359.259 69.9013 357.976 70.1973 356.644 70.444C355.312 70.74 353.956 70.9373 352.574 71.036C351.193 71.184 349.836 71.184 348.504 71.036C347.222 70.888 345.988 70.5673 344.804 70.074C342.831 69.2353 341.326 68.1007 340.29 66.67C339.254 65.2393 338.44 63.4633 337.848 61.342C337.7 60.7993 337.528 60.0593 337.33 59.122C337.182 58.1353 337.059 57.1487 336.96 56.162C336.812 54.5833 336.689 53.1527 336.59 51.87C336.492 50.5873 336.393 49.3293 336.294 48.096C336.245 46.8133 336.196 45.4813 336.146 44.1C336.146 42.6693 336.171 41.0413 336.22 39.216C336.27 37.6373 336.344 36.034 336.442 34.406C336.541 32.7287 336.714 31.1007 336.96 29.522C337.207 27.894 337.626 26.3153 338.218 24.786C338.86 23.2567 339.896 21.9987 341.326 21.012C342.313 20.1733 343.423 19.5567 344.656 19.162C345.89 18.7673 347.172 18.4713 348.504 18.274C351.218 17.9287 353.808 18.0273 356.274 18.57C358.741 19.0633 360.862 19.976 362.638 21.308C364.414 22.64 365.746 24.416 366.634 26.636C367.522 28.8067 367.794 31.3967 367.448 34.406L367.374 34.85C367.276 34.998 367.054 35.072 366.708 35.072C366.363 35.072 365.796 35.0967 365.006 35.146C364.266 35.146 363.625 35.1707 363.082 35.22C362.589 35.22 362.071 35.22 361.528 35.22C361.035 35.22 360.517 35.1953 359.974 35.146C359.432 35.0967 358.79 35.0227 358.05 34.924C357.902 34.4307 357.68 33.8387 357.384 33.148C357.138 32.408 356.792 31.742 356.348 31.15C355.954 30.5087 355.485 29.966 354.942 29.522C354.4 29.0287 353.758 28.782 353.018 28.782C352.18 28.7327 351.366 28.708 350.576 28.708C349.787 28.708 349.096 29.004 348.504 29.596C348.406 29.6947 348.258 29.966 348.06 30.41C347.912 30.8047 347.789 31.1993 347.69 31.594C347.345 32.778 347.049 34.2087 346.802 35.886C346.605 37.5633 346.457 39.364 346.358 41.288C346.26 43.1627 346.235 45.1113 346.284 47.134C346.334 49.1567 346.432 51.0807 346.58 52.906C346.679 53.9913 346.876 55.1753 347.172 56.458C347.468 57.7407 348.085 58.752 349.022 59.492C349.466 59.788 350.034 60.01 350.724 60.158C351.464 60.2567 352.229 60.232 353.018 60.084C353.857 59.936 354.622 59.7387 355.312 59.492C355.855 59.2453 356.324 58.9247 356.718 58.53C357.113 58.086 357.409 57.5187 357.606 56.828C357.656 56.6307 357.705 56.31 357.754 55.866C357.853 55.3727 357.902 54.8793 357.902 54.386C357.952 53.8927 357.952 53.4487 357.902 53.054C357.902 52.6593 357.828 52.4373 357.68 52.388C357.384 52.3387 356.965 52.3387 356.422 52.388C355.929 52.388 355.386 52.4127 354.794 52.462C354.252 52.462 353.734 52.462 353.24 52.462C352.796 52.4127 352.451 52.3387 352.204 52.24C352.106 51.4507 352.032 50.76 351.982 50.168C351.982 49.576 351.982 49.0087 351.982 48.466C352.032 47.874 352.056 47.282 352.056 46.69C352.056 46.098 352.007 45.358 351.908 44.47V44.396C351.908 44.3467 351.933 44.322 351.982 44.322ZM394.269 59.862C397.427 60.01 400.683 60.0347 404.037 59.936V60.084C404.136 61.6627 404.161 63.3153 404.111 65.042C404.062 66.7193 403.84 68.298 403.445 69.778C398.413 69.7287 393.283 69.8027 388.053 70C382.873 70.148 377.891 70.0247 373.105 69.63C373.105 65.338 373.056 61.0953 372.957 56.902C372.859 52.6593 372.785 48.4413 372.735 44.248C372.686 40.0547 372.686 35.8613 372.735 31.668C372.785 27.4747 372.933 23.2567 373.179 19.014C375.103 18.9153 377.175 18.8413 379.395 18.792C381.665 18.6933 383.934 18.6193 386.203 18.57C388.473 18.5207 390.668 18.4713 392.789 18.422C394.911 18.3727 396.785 18.348 398.413 18.348C400.041 18.348 401.349 18.3727 402.335 18.422C403.322 18.4713 403.815 18.5207 403.815 18.57C404.062 20.2967 404.111 22.048 403.963 23.824C403.865 25.6 403.815 27.3513 403.815 29.078V29.152C402.237 29.4973 400.633 29.7193 399.005 29.818C397.427 29.8673 395.823 29.892 394.195 29.892C392.567 29.8427 390.939 29.818 389.311 29.818C387.683 29.818 386.055 29.892 384.427 30.04H384.205L384.131 30.114C384.181 31.5447 384.107 33.0247 383.909 34.554C383.761 36.034 383.86 37.44 384.205 38.772L384.279 38.846C385.759 38.9447 387.264 38.994 388.793 38.994C390.323 38.994 391.852 39.0187 393.381 39.068V39.142C393.628 40.8193 393.702 42.4967 393.603 44.174C393.505 45.8513 393.48 47.6027 393.529 49.428C392.789 49.6253 391.951 49.7487 391.013 49.798C390.076 49.798 389.163 49.798 388.275 49.798C387.437 49.798 386.672 49.8227 385.981 49.872C385.291 49.9213 384.822 50.0447 384.575 50.242C384.329 51.6727 384.23 53.276 384.279 55.052C384.378 56.828 384.477 58.308 384.575 59.492L384.649 59.566C387.905 59.566 391.112 59.6647 394.269 59.862ZM438.554 70.222C438.209 70.3207 437.617 70.37 436.778 70.37C435.792 70.37 434.657 70.296 433.374 70.148C432.092 70.0493 430.957 70 429.97 70C428.342 66.3493 426.714 62.822 425.086 59.418C423.508 55.9647 422.151 52.6593 421.016 49.502L420.276 47.282C420.079 46.7393 419.882 46.246 419.684 45.802C419.536 45.3087 419.413 45.062 419.314 45.062C419.265 45.062 419.191 45.654 419.092 46.838C419.043 48.022 418.994 49.5267 418.944 51.352C418.895 53.1773 418.846 55.2 418.796 57.42C418.796 59.64 418.796 61.786 418.796 63.858C418.796 64.9927 418.796 66.1027 418.796 67.188C418.796 68.224 418.821 69.1613 418.87 70C418.328 70.148 417.785 70.2467 417.242 70.296C416.7 70.3453 416.157 70.37 415.614 70.37C414.43 70.37 413.222 70.296 411.988 70.148C410.804 70 409.645 69.926 408.51 69.926V64.746C408.51 60.0593 408.461 55.5947 408.362 51.352C408.313 47.1093 408.288 42.6693 408.288 38.032C408.288 34.628 408.338 31.2733 408.436 27.968C408.535 24.6133 408.708 21.3573 408.954 18.2C409.448 18.1013 409.966 18.0273 410.508 17.978C411.1 17.9287 411.692 17.904 412.284 17.904C412.58 17.904 413.074 17.9287 413.764 17.978C414.455 17.978 415.146 18.0273 415.836 18.126C416.527 18.1753 417.119 18.2493 417.612 18.348C418.155 18.4467 418.426 18.5453 418.426 18.644C418.772 19.532 419.092 20.272 419.388 20.864C419.684 21.456 419.956 22.0233 420.202 22.566C420.498 23.1087 420.794 23.7253 421.09 24.416C421.436 25.0573 421.83 25.896 422.274 26.932C422.373 27.1787 422.595 27.6473 422.94 28.338C423.286 29.0287 423.68 29.8427 424.124 30.78C424.568 31.668 425.037 32.63 425.53 33.666C426.024 34.6527 426.468 35.5653 426.862 36.404C427.306 37.1933 427.676 37.884 427.972 38.476C428.268 39.0187 428.441 39.29 428.49 39.29C428.638 39.1913 428.762 38.698 428.86 37.81C428.959 36.922 429.008 36.0587 429.008 35.22C429.008 33.2467 428.959 31.4213 428.86 29.744C428.811 28.0173 428.786 26.266 428.786 24.49C428.786 23.454 428.786 22.418 428.786 21.382C428.836 20.2967 428.885 19.1373 428.934 17.904C430.612 17.608 432.388 17.46 434.262 17.46C436.088 17.46 437.716 17.608 439.146 17.904V41.732C439.196 43.804 439.22 45.9007 439.22 48.022C439.22 50.1433 439.22 52.2647 439.22 54.386C439.22 55.8167 439.196 57.198 439.146 58.53C439.146 59.862 439.146 61.2187 439.146 62.6C439.146 63.5867 439.146 64.5733 439.146 65.56C439.196 66.5467 439.22 67.5333 439.22 68.52V70C439.122 70.0493 438.9 70.1233 438.554 70.222ZM467.788 20.494C469.268 21.6287 470.452 22.9113 471.34 24.342C472.425 26.0193 473.313 27.7707 474.004 29.596C474.744 31.372 475.336 33.2467 475.78 35.22C476.026 36.0093 476.174 36.7987 476.224 37.588C476.322 38.328 476.396 39.0927 476.446 39.882C476.347 42.2007 476.248 44.544 476.15 46.912C476.1 49.2307 475.854 51.5247 475.41 53.794C475.41 53.8433 475.385 53.868 475.336 53.868C475.336 53.868 475.336 53.8927 475.336 53.942C474.349 56.8527 472.992 59.6153 471.266 62.23C469.588 64.8447 467.812 67.3113 465.938 69.63C462.682 69.7287 459.401 69.8027 456.096 69.852C452.79 69.852 449.584 69.852 446.476 69.852C446.476 69.852 446.451 69.8767 446.402 69.926C445.859 66.0287 445.514 62.008 445.366 57.864C445.218 53.6707 445.144 49.428 445.144 45.136C445.144 40.844 445.168 36.5273 445.218 32.186C445.316 27.7953 445.316 23.454 445.218 19.162C445.267 19.1127 445.292 19.0633 445.292 19.014C445.341 18.9647 445.39 18.9153 445.44 18.866C446.821 18.5207 448.252 18.2987 449.732 18.2C451.261 18.052 452.79 18.0027 454.32 18.052C455.849 18.052 457.354 18.0767 458.834 18.126C460.363 18.1753 461.843 18.1753 463.274 18.126C464.852 18.5207 466.357 19.31 467.788 20.494ZM463.496 52.536C463.89 52.092 464.236 51.648 464.532 51.204C465.37 49.9213 465.962 48.5153 466.308 46.986C466.702 45.4567 466.702 43.7793 466.308 41.954C466.16 41.214 465.987 40.4493 465.79 39.66C465.592 38.8213 465.296 38.032 464.902 37.292C464.556 36.552 464.112 35.9107 463.57 35.368C463.027 34.776 462.336 34.332 461.498 34.036C460.659 33.9373 459.746 33.888 458.76 33.888C457.773 33.8387 456.836 33.9127 455.948 34.11H455.8H455.726V34.406C455.824 35.738 455.874 37.1687 455.874 38.698C455.874 40.2273 455.849 41.8307 455.8 43.508C455.75 45.136 455.726 46.8133 455.726 48.54C455.726 50.2173 455.775 51.8947 455.874 53.572C456.416 54.0653 457.156 54.2873 458.094 54.238C459.08 54.1887 460.018 54.1147 460.906 54.016C461.152 54.0653 461.374 54.0407 461.572 53.942C461.769 53.794 461.991 53.6707 462.238 53.572C462.731 53.276 463.15 52.9307 463.496 52.536ZM511.331 25.748C512.614 28.1653 512.91 31.224 512.219 34.924H512.145C510.418 35.22 508.568 35.4173 506.595 35.516C504.622 35.5653 502.772 35.3433 501.045 34.85C501.341 33.518 501.07 32.408 500.231 31.52C499.392 30.632 498.381 30.0647 497.197 29.818C496.013 29.5713 494.854 29.6947 493.719 30.188C492.634 30.6813 491.992 31.6187 491.795 33C491.696 33.3453 491.647 33.6907 491.647 34.036C491.696 34.332 491.746 34.6527 491.795 34.998C492.19 36.182 492.831 36.9713 493.719 37.366C494.607 37.7607 495.569 38.032 496.605 38.18C499.22 38.476 501.637 39.3147 503.857 40.696C506.126 42.0773 507.976 43.8287 509.407 45.95C510.295 47.0847 510.961 48.318 511.405 49.65C511.849 50.9327 512.096 52.2647 512.145 53.646C512.244 55.0273 512.145 56.4333 511.849 57.864C511.602 59.2453 511.183 60.5773 510.591 61.86C509.999 63.3893 509.21 64.6967 508.223 65.782C507.236 66.8673 506.102 67.7553 504.819 68.446C503.586 69.1367 502.229 69.6547 500.749 70C499.318 70.296 497.838 70.4193 496.309 70.37C494.138 70.3207 491.968 69.9507 489.797 69.26C487.676 68.52 485.776 67.5087 484.099 66.226C482.422 64.9433 481.09 63.3893 480.103 61.564C479.116 59.6893 478.697 57.568 478.845 55.2V54.978V54.756C480.572 54.5093 482.471 54.46 484.543 54.608C486.615 54.7067 488.49 54.7313 490.167 54.682C490.266 56.2607 490.882 57.4447 492.017 58.234C493.201 59.0233 494.434 59.418 495.717 59.418C497.049 59.3687 498.184 58.9247 499.121 58.086C500.108 57.2473 500.453 55.9647 500.157 54.238C500.009 53.054 499.565 52.1167 498.825 51.426C498.085 50.686 497.197 50.094 496.161 49.65C495.174 49.206 494.089 48.8853 492.905 48.688C491.721 48.4413 490.611 48.2193 489.575 48.022C488.588 47.8247 487.676 47.504 486.837 47.06C485.998 46.616 485.234 46.098 484.543 45.506C482.274 43.3353 480.794 40.9427 480.103 38.328C479.462 35.7133 479.437 33.1727 480.029 30.706C480.621 28.2393 481.731 25.9947 483.359 23.972C485.036 21.9493 487.059 20.4447 489.427 19.458C490.611 18.9647 491.918 18.644 493.349 18.496C494.78 18.2987 496.21 18.2493 497.641 18.348C499.121 18.3973 500.552 18.5947 501.933 18.94C503.364 19.2853 504.671 19.7293 505.855 20.272C508.223 21.5053 510.048 23.3307 511.331 25.748Z" fill="white"/>
<g clip-path="url(#clip0_5_24)">
<path d="M54.821 60.917L29.59 16.9213C29.2642 16.3531 28.6547 16 27.9998 16C27.3449 16 26.7354 16.3531 26.4096 16.9213L1.17864 60.917C0.904877 61.3942 0.860143 61.9701 1.0568 62.4841C1.25345 62.998 1.67126 63.3969 2.19375 63.5695L27.4247 71.9077C27.7966 72.0306 28.2032 72.0306 28.5751 71.9077L53.8061 63.5695C54.3284 63.3968 54.7464 62.9979 54.943 62.4841C55.1396 61.9702 55.0947 61.3943 54.821 60.917Z" fill="#00e0d9"/>
<path d="M28.5752 71.9077L53.8062 63.5695C54.3285 63.3968 54.7465 62.9979 54.9431 62.4841C55.1398 61.9702 55.0949 61.3942 54.8213 60.917L29.5903 16.9212C29.2644 16.3531 28.6549 16 28 16V71.9998C28.1947 71.9998 28.3893 71.9692 28.5752 71.9077Z" fill="#00e0d9"/>
<path d="M53.8061 60.0885L41.1906 55.9193L28.5752 51.7503C28.3891 51.6888 28.1947 51.6582 28 51.6582C27.8053 51.6582 27.6107 51.6888 27.4248 51.7503L14.8092 55.9193L2.19371 60.0885C1.81779 60.2126 1.50334 60.4498 1.28284 60.755C1.06234 61.0601 0.935791 61.4331 0.935791 61.8289C0.935791 62.2248 1.06245 62.5977 1.28284 62.9029C1.50334 63.208 1.8179 63.4453 2.19371 63.5694L14.8093 67.7385L27.4249 71.9077C27.6109 71.9692 27.8054 71.9998 28.0001 71.9998C28.1948 71.9998 28.3894 71.9692 28.5753 71.9077L41.1909 67.7385L53.8065 63.5694C54.1823 63.4453 54.4968 63.208 54.7173 62.9029C54.9378 62.5977 55.0644 62.2248 55.0644 61.8289C55.0644 61.4331 54.9377 61.06 54.7173 60.755C54.4965 60.4498 54.182 60.2126 53.8061 60.0885Z" fill="#00e0d9"/>
<path d="M28.5752 71.9077L41.1908 67.7385L53.8064 63.5694C54.1822 63.4453 54.4968 63.208 54.7173 62.9029C54.9378 62.5977 55.0643 62.2248 55.0643 61.8289C55.0643 61.4331 54.9376 61.06 54.7173 60.755C54.4968 60.4498 54.1822 60.2126 53.8064 60.0885L41.1908 55.9193L28.5752 51.7503C28.3892 51.6888 28.1947 51.6582 28 51.6582V71.9998C28.1947 71.9998 28.3893 71.9692 28.5752 71.9077Z" fill="#00e0d9"/>
</g>
<defs>
<clipPath id="clip0_5_24">
<rect width="56" height="56" fill="white" transform="translate(0 16)"/>
</clipPath>
</defs>
</svg>
