<svg width="554" height="81" viewBox="0 0 554 81" fill="none" xmlns="http://www.w3.org/2000/svg">
<path d="M28.416 16C34.0907 16 39.0613 17.0027 43.328 19.008C47.6373 20.9707 50.9653 23.7653 53.312 27.392C55.7013 30.976 56.896 35.1787 56.896 40C56.896 44.8213 55.7013 49.0453 53.312 52.672C50.9653 56.256 47.6373 59.0507 43.328 61.056C39.0613 63.0187 34.0907 64 28.416 64H4.48V16H28.416ZM17.664 58.432L11.328 52.224H29.44C32.2987 52.224 34.7733 51.7333 36.864 50.752C38.9973 49.728 40.64 48.2987 41.792 46.464C42.944 44.6293 43.52 42.4747 43.52 40C43.52 37.4827 42.944 35.328 41.792 33.536C40.64 31.7013 38.9973 30.2933 36.864 29.312C34.7733 28.288 32.2987 27.776 29.44 27.776H11.328L17.664 21.568V58.432ZM90.098 65.024C84.4233 65.024 79.4313 63.9787 75.122 61.888C70.8553 59.7973 67.5273 56.8747 65.138 53.12C62.7913 49.3653 61.618 44.992 61.618 40C61.618 35.008 62.7913 30.6347 65.138 26.88C67.5273 23.1253 70.8553 20.2027 75.122 18.112C79.4313 16.0213 84.4233 14.976 90.098 14.976C95.8153 14.976 100.807 16.0213 105.074 18.112C109.341 20.2027 112.669 23.1253 115.058 26.88C117.447 30.6347 118.642 35.008 118.642 40C118.642 44.992 117.447 49.3653 115.058 53.12C112.669 56.8747 109.341 59.7973 105.074 61.888C100.807 63.9787 95.8153 65.024 90.098 65.024ZM90.098 53.184C93.2127 53.184 95.9007 52.6507 98.162 51.584C100.423 50.5173 102.151 49.0027 103.346 47.04C104.583 45.0773 105.202 42.7307 105.202 40C105.202 37.2693 104.583 34.9227 103.346 32.96C102.151 30.9973 100.423 29.4827 98.162 28.416C95.9007 27.3493 93.2127 26.816 90.098 26.816C87.026 26.816 84.3593 27.3493 82.098 28.416C79.8367 29.4827 78.0873 30.9973 76.85 32.96C75.6127 34.9227 74.994 37.2693 74.994 40C74.994 42.7307 75.6127 45.0773 76.85 47.04C78.0873 49.0027 79.8367 50.5173 82.098 51.584C84.3593 52.6507 87.026 53.184 90.098 53.184ZM169.96 54.72L165.864 55.552V16H178.728V64H162.024L134.312 24.512L138.344 23.68V64H125.48V16H142.632L169.96 54.72ZM197.012 54.784V44.096H230.1V54.784H197.012ZM222.548 16L244.372 64H230.228L211.924 21.632H215.764L197.396 64H183.252L205.076 16H222.548ZM256.27 21.824H269.582V64H256.27V21.824ZM237.966 16H287.886V27.776H237.966V16Z" fill="white"/>
<path d="M385.48 18H398.728V66H385.48V18ZM423.24 18H436.552V66H423.24V18ZM392.904 35.728H428.744V47.504H392.904V35.728ZM458.151 44.56C458.151 46.736 458.556 48.6347 459.367 50.256C460.22 51.8347 461.457 53.0507 463.079 53.904C464.743 54.7573 466.769 55.184 469.159 55.184C471.591 55.184 473.617 54.7573 475.239 53.904C476.86 53.0507 478.076 51.8347 478.887 50.256C479.697 48.6347 480.103 46.736 480.103 44.56V18H493.415V45.2C493.415 49.5947 492.391 53.4347 490.343 56.72C488.337 59.9627 485.521 62.5013 481.895 64.336C478.268 66.128 474.023 67.024 469.159 67.024C464.337 67.024 460.092 66.128 456.423 64.336C452.796 62.5013 449.959 59.9627 447.911 56.72C445.905 53.4347 444.903 49.5947 444.903 45.2V18H458.151V44.56ZM534.242 42.512L535.33 40.016C539.042 40.1013 542.093 40.6773 544.482 41.744C546.914 42.768 548.727 44.2187 549.922 46.096C551.117 47.9307 551.714 50.064 551.714 52.496C551.714 55.0987 551.117 57.424 549.922 59.472C548.727 61.4773 546.935 63.0773 544.546 64.272C542.199 65.424 539.255 66 535.714 66H500.258L503.97 41.36L500.258 18H534.434C538.871 18 542.327 19.0453 544.802 21.136C547.277 23.184 548.514 26.0427 548.514 29.712C548.514 31.7173 548.045 33.6373 547.106 35.472C546.167 37.3067 544.653 38.864 542.562 40.144C540.514 41.3813 537.741 42.1707 534.242 42.512ZM513.378 62.928L508.258 56.72H532.13C534.05 56.72 535.543 56.2507 536.61 55.312C537.677 54.3733 538.21 53.072 538.21 51.408C538.21 49.744 537.634 48.4213 536.482 47.44C535.33 46.416 533.623 45.904 531.362 45.904H511.65V36.816H529.57C531.106 36.816 532.386 36.368 533.41 35.472C534.477 34.5333 535.01 33.2747 535.01 31.696C535.01 30.416 534.562 29.3707 533.666 28.56C532.77 27.7067 531.49 27.28 529.826 27.28H508.322L513.378 21.072L516.642 41.36L513.378 62.928Z" fill="white"/>
<path d="M338.85 72.7164L334.938 42.8468M361.565 39.3596L363.247 52.2035C363.412 53.456 363.229 54.73 362.718 55.8864C362.207 57.0428 361.387 58.0371 360.348 58.7608L341.717 71.5983C340.864 72.1923 339.88 72.5729 338.849 72.7079C337.818 72.843 336.77 72.7285 335.793 72.3742L314.484 64.7676C313.294 64.3359 312.245 63.5862 311.454 62.6005C310.662 61.6148 310.157 60.4308 309.994 59.178L308.312 46.3341M340.799 5.65475C341.567 5.08401 342.469 4.71904 343.419 4.59465C344.369 4.47027 345.335 4.59062 346.224 4.94422L361.229 10.9459C362.292 11.3745 363.222 12.0769 363.923 12.9815C364.624 13.886 365.072 14.9602 365.221 16.0943C365.369 17.2284 365.213 18.3818 364.768 19.4364C364.324 20.4911 363.606 21.4093 362.689 22.0972L325.132 50.1737C324.363 50.7555 323.455 51.1274 322.498 51.2528C321.541 51.3781 320.567 51.2526 319.674 50.8886L304.736 44.8782C303.673 44.4497 302.743 43.7472 302.042 42.8426C301.34 41.9381 300.893 40.8639 300.744 39.7298C300.595 38.5957 300.752 37.4424 301.196 36.3877C301.641 35.333 302.359 34.4148 303.275 33.7269L340.799 5.65475ZM364.645 37.032C365.562 36.3441 366.28 35.4259 366.724 34.3712C367.169 33.3165 367.325 32.1632 367.177 31.0291C367.028 29.895 366.58 28.8208 365.879 27.9162C365.178 27.0117 364.248 26.3092 363.185 25.8807L319.693 8.38519C318.806 8.02177 317.838 7.89615 316.886 8.02079C315.935 8.14542 315.032 8.51599 314.268 9.09572L301.319 18.7922C300.403 19.4801 299.685 20.3983 299.24 21.4529C298.796 22.5076 298.639 23.6609 298.788 24.795C298.937 25.9291 299.384 27.0033 300.086 27.9079C300.787 28.8124 301.717 29.5149 302.78 29.9435L346.3 47.4014C347.188 47.7661 348.156 47.8925 349.107 47.7678C350.059 47.6431 350.962 47.2718 351.725 46.6908L364.645 37.032Z" stroke="#09FFF7" stroke-width="6" stroke-linecap="round" stroke-linejoin="round"/>
</svg>
